<svg version="1.1" id="Layer_1" xmlns="http://www.w3.org/2000/svg" xmlns:xlink="http://www.w3.org/1999/xlink" x="0px" y="0px"
	 width="100%" viewBox="0 0 240 240" enable-background="new 0 0 240 240" xml:space="preserve">
<path fill="#FDFDFD" opacity="1.000000" stroke="none" 
	d="
M241.000000,64.000000 
	C241.000000,123.333336 241.000000,182.166672 241.000000,241.000000 
	C161.000000,241.000000 81.000000,241.000000 1.000000,241.000000 
	C1.000000,161.000000 1.000000,81.000000 1.000000,1.000000 
	C81.000000,1.000000 161.000000,1.000000 241.000000,1.000000 
	C241.000000,21.833334 241.000000,42.666668 241.000000,64.000000 
M225.025955,84.505783 
	C225.072998,84.337654 225.120056,84.169518 225.753891,83.616226 
	C227.939850,80.560463 226.970352,78.448799 223.481216,78.099472 
	C218.622940,77.613091 213.707108,77.687317 208.814926,77.558945 
	C205.369614,77.468536 201.920151,77.352997 198.478363,77.451561 
	C197.711716,77.473526 196.969406,78.346214 196.215897,78.827225 
	C196.850647,79.566467 197.485397,80.305710 198.016907,81.867752 
	C197.955276,83.244690 197.893631,84.621620 197.146744,86.092163 
	C196.027847,86.635689 194.908951,87.179214 192.858780,88.175140 
	C193.326767,85.678802 194.037811,83.974930 193.839890,82.384140 
	C193.619461,80.612396 192.571991,78.943550 191.884537,77.229912 
	C190.589630,78.429863 189.294724,79.629807 187.100479,80.982834 
	C184.824539,80.982834 182.548584,80.982834 179.883820,80.982834 
	C179.883820,87.280327 179.883820,93.082504 178.987167,98.991882 
	C176.393356,98.991882 173.799530,98.991882 170.806976,98.991882 
	C170.806976,92.637444 170.806976,86.888969 170.806976,80.757355 
	C167.633362,80.757355 164.892456,80.757355 161.780151,80.757355 
	C161.780151,71.621902 161.780151,62.885223 161.780151,53.777046 
	C146.646957,53.777046 131.905273,53.777046 116.772369,53.777046 
	C116.772369,50.642330 116.772369,47.895859 116.772369,44.777344 
	C113.621780,44.777344 110.867744,44.777344 107.916862,44.777344 
	C107.916862,41.567497 107.916862,38.748943 108.843750,35.987804 
	C111.455109,35.987804 114.066475,35.987804 117.042801,35.987804 
	C117.042801,32.807064 117.042801,30.063599 117.042801,27.201065 
	C120.167770,27.201065 122.903442,27.201065 126.019333,27.201065 
	C126.019333,33.142715 126.019333,38.883965 126.019333,44.667412 
	C138.245407,44.667412 150.085114,44.667412 161.676117,44.667412 
	C161.676117,35.604824 161.676117,26.879995 161.676117,18.068241 
	C155.542252,18.068241 149.736008,18.068241 143.991119,17.143446 
	C143.991119,14.552032 143.991119,11.960618 143.991119,9.337025 
	C140.751450,9.337025 137.911301,9.337025 135.072250,9.337025 
	C135.072250,12.473233 135.072250,15.271739 134.128021,18.002626 
	C125.552162,18.002626 116.976303,18.002626 108.021790,18.002626 
	C108.021790,14.876169 108.021790,12.144114 108.021790,9.317535 
	C101.783936,9.317535 95.935410,9.317535 90.069824,9.317535 
	C90.069824,12.448011 90.069824,15.260254 89.144852,18.004265 
	C86.554276,18.004265 83.963692,18.004265 81.339905,18.004265 
	C81.339905,21.231363 81.339905,24.069429 81.339905,26.930864 
	C84.478767,26.930864 87.275169,26.930864 90.010582,27.857281 
	C90.010582,30.458801 90.010582,33.060322 90.010582,36.184326 
	C86.758430,36.184326 83.895485,36.184326 81.339630,36.184326 
	C81.339630,39.460423 81.339630,42.195076 81.339630,45.270554 
	C84.426964,45.270554 87.172325,45.270554 90.081116,45.270554 
	C90.081116,48.436996 90.081116,51.243732 89.152435,54.008148 
	C86.548668,54.008148 83.944901,54.008148 81.359970,54.008148 
	C81.359970,60.270771 81.359970,66.111046 81.359970,71.645836 
	C84.456573,71.645836 87.186729,71.645836 89.939812,71.645836 
	C89.939812,65.497673 89.939812,59.703232 90.880417,53.995518 
	C96.567520,53.995518 102.254623,53.995518 108.071754,53.995518 
	C108.071754,57.478146 108.071754,60.274170 107.146393,63.001282 
	C104.553612,63.001282 101.960823,63.001282 99.335648,63.001282 
	C99.335648,66.233627 99.335648,69.065826 99.335648,71.937782 
	C102.473259,71.937782 105.268517,71.937782 108.005478,72.850357 
	C107.984634,75.595329 107.963791,78.340309 108.014580,81.017776 
	C108.014580,81.017776 108.082230,80.946274 107.154747,80.994812 
	C104.547066,80.994812 101.939392,80.994812 98.964783,80.994812 
	C98.964783,84.140411 98.964783,86.890114 98.964783,89.799744 
	C95.858238,89.799744 93.137360,89.799744 90.016815,89.799744 
	C90.016815,86.880409 90.016815,84.138924 90.016815,81.310822 
	C80.777054,81.310822 71.940384,81.310822 63.077053,81.310822 
	C63.077053,84.436119 63.077053,87.246948 62.148712,90.009148 
	C59.536976,90.009148 56.925243,90.009148 53.953259,90.009148 
	C53.953259,86.836639 53.953259,84.092331 53.953259,81.193710 
	C38.853767,81.193710 24.131374,81.193710 9.321775,81.193710 
	C9.321775,108.219742 9.321775,135.050201 9.321775,161.673447 
	C12.391738,161.673447 15.131483,161.673447 18.257210,161.673447 
	C18.257210,152.614029 18.257210,143.879761 18.257210,134.935059 
	C27.466660,134.935059 36.270950,134.935059 45.004566,135.857666 
	C45.004566,138.464294 45.004566,141.070923 45.004566,144.038177 
	C41.809025,144.038177 39.071064,144.038177 36.206993,144.038177 
	C36.206993,150.154617 36.206993,155.888611 36.206993,161.814880 
	C39.146690,161.814880 41.878422,161.814880 45.166214,161.814880 
	C45.166214,158.771652 45.166214,155.906021 45.166214,152.677948 
	C48.464054,152.677948 51.202976,152.677948 54.289024,152.677948 
	C54.289024,149.549576 54.289024,146.808670 54.289024,143.933487 
	C60.463589,143.933487 66.268997,143.933487 71.997780,144.856995 
	C71.997780,147.460480 71.997780,150.063980 71.997780,153.021423 
	C68.855560,153.021423 66.116226,153.021423 63.190994,153.021423 
	C63.190994,156.119797 63.190994,158.848068 63.190994,161.927780 
	C69.241417,161.927780 75.155670,161.927780 81.003937,162.871292 
	C81.003937,168.452896 81.003937,174.034500 81.003937,180.130249 
	C84.236038,180.130249 87.107491,180.130249 90.070251,180.130249 
	C90.070251,183.459961 90.070251,186.266449 89.145378,189.003387 
	C86.538887,189.003387 83.932388,189.003387 81.351646,189.003387 
	C81.351646,204.271454 81.351646,219.093384 81.351646,233.664917 
	C87.441887,233.664917 93.172363,233.664917 98.663559,233.664917 
	C98.663559,230.579834 98.663559,227.840210 98.663559,224.725784 
	C95.592224,224.725784 92.852386,224.725784 90.315697,224.725784 
	C90.315697,221.586426 90.315697,218.845779 90.315697,215.737366 
	C93.379982,215.737366 96.121986,215.737366 98.925682,215.737366 
	C98.925682,212.544327 98.925682,209.734924 99.868553,207.004257 
	C105.452805,207.004257 111.037064,207.004257 116.801971,207.004257 
	C116.958900,210.338409 117.096497,213.261795 116.267822,215.991913 
	C113.539528,215.991913 110.811234,215.991913 108.319092,215.991913 
	C108.319092,219.407684 108.319092,222.137573 108.319092,224.709564 
	C111.375519,224.709564 114.108505,224.709564 117.076332,224.709564 
	C117.076332,221.627625 117.076332,218.833084 118.002167,215.991119 
	C123.570633,215.991119 129.139099,215.991119 135.054810,215.991119 
	C135.054810,222.223770 135.054810,227.950195 135.054810,233.807007 
	C138.140381,233.807007 140.862473,233.807007 143.935043,233.807007 
	C143.935043,224.710999 143.935043,215.813263 144.875412,206.999115 
	C150.526733,206.931747 156.178070,206.864395 161.764450,206.743256 
	C161.764450,206.743256 161.686386,206.671738 161.997406,207.587006 
	C161.997406,210.350494 161.997406,213.113983 161.997406,216.237778 
	C158.651581,216.237778 155.906601,216.237778 153.304565,216.237778 
	C153.304565,222.369339 153.304565,228.113724 153.304565,233.689636 
	C156.367630,233.689636 159.114578,233.689636 162.236801,233.689636 
	C162.236801,230.640381 162.236801,227.899719 162.236801,224.921066 
	C177.439636,224.921066 192.251328,224.921066 207.006348,225.849884 
	C207.006348,228.456192 207.006348,231.062515 207.006348,233.663086 
	C216.255173,233.663086 225.096771,233.663086 233.667877,233.663086 
	C233.667877,230.575012 233.667877,227.838455 233.667877,224.740250 
	C230.593735,224.740250 227.852707,224.740250 224.925873,224.740250 
	C224.925873,221.551529 224.925873,218.742020 225.852493,215.996262 
	C228.459549,215.996262 231.066605,215.996262 233.833862,215.996262 
	C233.833862,209.840729 233.833862,204.118439 233.833862,198.309006 
	C227.793945,198.309006 221.934647,198.309006 216.067810,198.309006 
	C216.067810,201.437424 216.067810,204.253067 215.141937,207.016190 
	C212.432495,207.016190 209.723053,207.016190 207.067932,207.016190 
	C207.067932,210.492340 207.067932,213.282440 206.144287,215.997086 
	C203.544632,215.997086 200.944977,215.997086 198.355469,215.997086 
	C198.355469,209.716400 198.355469,203.885208 198.355469,197.874893 
	C201.329346,197.874893 203.938858,197.874893 206.916245,197.874893 
	C206.916245,191.777878 206.916245,185.865005 207.864304,179.995331 
	C216.470459,179.995331 225.076614,179.995331 233.809219,179.995331 
	C233.809219,167.846558 233.809219,156.119858 233.809219,143.833221 
	C230.763428,143.833221 227.897949,143.833221 224.851044,143.833221 
	C224.851044,140.651962 224.851044,138.032394 224.851044,135.331772 
	C218.771179,135.331772 212.904205,135.331772 207.349731,135.331772 
	C207.349731,138.424789 207.349731,141.167984 207.349731,144.299805 
	C210.452194,144.299805 213.192001,144.299805 216.298355,144.299805 
	C216.298355,147.452271 216.298355,150.196381 216.298355,153.304825 
	C219.430603,153.304825 222.171280,153.304825 224.660217,153.304825 
	C224.660217,159.432007 224.660217,165.167068 224.660217,171.251556 
	C218.568802,171.251556 212.819687,171.251556 207.056442,171.251556 
	C207.056442,174.446030 207.056442,177.269333 206.134933,180.005402 
	C203.530014,180.005402 200.925079,180.005402 198.220413,180.005402 
	C198.220413,173.805511 198.220413,168.078720 198.220413,161.961472 
	C201.180099,161.961472 203.917282,161.961472 206.795319,161.961472 
	C206.795319,158.834457 206.795319,156.102356 206.795319,152.852661 
	C194.752258,152.852661 182.903641,152.852661 171.319427,152.852661 
	C171.319427,149.583496 171.319427,146.839127 171.319427,143.740494 
	C174.393509,143.740494 177.138168,143.740494 179.926117,143.740494 
	C179.926117,140.556198 179.926117,137.744339 180.850708,134.996368 
	C183.461426,134.996368 186.072128,134.996368 189.048645,134.996368 
	C189.048645,138.190994 189.048645,140.938293 189.048645,143.790009 
	C192.169205,143.790009 194.899155,143.790009 198.020569,143.790009 
	C198.020569,137.852875 198.020569,132.118454 198.020569,126.014069 
	C201.141922,126.014069 203.877945,126.014069 206.801178,126.014069 
	C206.801178,122.894897 206.801178,120.160805 206.801178,117.068481 
	C194.746628,117.068481 182.838181,117.068481 170.995285,116.143059 
	C170.995285,113.530602 170.995285,110.918137 170.995285,107.948700 
	C174.162903,107.948700 176.905319,107.948700 179.736038,107.948700 
	C179.736038,104.634476 179.736038,101.693649 180.706284,98.983757 
	C183.451569,98.983757 186.196838,98.983757 189.292572,98.983757 
	C189.292572,102.443916 189.292572,105.194954 189.292572,108.488342 
	C192.552856,107.943062 195.365494,107.472641 198.913483,107.016212 
	C201.649002,107.328812 204.384537,107.641418 208.019836,107.989204 
	C210.608276,107.989204 213.196716,107.989204 215.920197,107.989204 
	C215.920197,104.623695 215.920197,101.826035 216.409134,98.686905 
	C216.459290,97.635452 216.509445,96.584000 216.537659,95.992401 
	C218.388443,95.992401 219.969177,95.992401 221.599731,95.992401 
	C222.395401,99.519669 222.395401,99.519669 225.946838,98.995377 
	C228.494965,98.995377 231.043106,98.995377 233.913055,98.995377 
	C233.913055,95.773430 233.913055,92.906334 234.482224,89.581451 
	C235.840073,84.976158 232.638901,85.287018 229.778885,85.206520 
	C228.240906,85.163231 226.704132,85.077072 225.025955,84.505783 
M72.000259,33.500008 
	C72.000259,25.404099 72.000259,17.308189 72.000259,9.297832 
	C50.705353,9.297832 29.979332,9.297832 9.312235,9.297832 
	C9.312235,30.325346 9.312235,51.052330 9.312235,71.709076 
	C30.337408,71.709076 51.065613,71.709076 71.999855,71.709076 
	C71.999855,59.110737 71.999855,46.805370 72.000259,33.500008 
M71.999481,201.500000 
	C71.999481,191.402267 71.999481,181.304520 71.999481,171.274307 
	C50.728397,171.274307 29.998194,171.274307 9.301785,171.274307 
	C9.301785,192.289078 9.301785,213.017410 9.301785,233.712036 
	C30.315815,233.712036 51.043060,233.712036 71.999458,233.712036 
	C71.999458,223.113739 71.999458,212.806870 71.999481,201.500000 
M171.019180,31.500050 
	C171.019180,44.919106 171.019180,58.338158 171.019180,71.709511 
	C192.330994,71.709511 213.063919,71.709511 233.717224,71.709511 
	C233.717224,50.681561 233.717224,29.949533 233.717224,9.288196 
	C212.690079,9.288196 191.959335,9.288196 171.019180,9.288196 
	C171.019180,16.550470 171.019180,23.525297 171.019180,31.500050 
M234.012955,119.601364 
	C233.223495,118.735001 232.466660,117.156639 231.639221,117.118706 
	C226.565842,116.886131 221.476471,117.002266 216.186447,117.002266 
	C216.186447,120.085144 216.186447,122.801979 216.186447,125.724609 
	C222.164261,125.724609 227.999863,125.724609 234.000427,125.724609 
	C234.000427,123.817253 234.000427,122.186157 234.012955,119.601364 
z"/>
<path fill="#030303" opacity="1.000000" stroke="none" 
	d="
M207.063034,224.921066 
	C192.251328,224.921066 177.439636,224.921066 162.236801,224.921066 
	C162.236801,227.899719 162.236801,230.640381 162.236801,233.689636 
	C159.114578,233.689636 156.367630,233.689636 153.304565,233.689636 
	C153.304565,228.113724 153.304565,222.369339 153.304565,216.237778 
	C155.906601,216.237778 158.651581,216.237778 161.997406,216.237778 
	C161.997406,213.113983 161.997406,210.350494 162.320251,207.284698 
	C165.474411,206.939362 168.305725,206.896317 171.068100,207.318207 
	C170.999146,210.391373 170.999146,212.999557 170.999146,215.659821 
	C177.191559,215.659821 183.043091,215.659821 188.678467,215.659821 
	C188.678467,209.588440 188.678467,203.859451 188.678467,198.300659 
	C185.612015,198.300659 182.874710,198.300659 179.783737,198.300659 
	C179.783737,201.365601 179.783737,204.109787 179.783737,206.989777 
	C176.607208,206.989777 173.801224,206.989777 170.996216,206.539856 
	C170.997192,203.495316 170.997192,200.900681 170.997192,198.231232 
	C167.779449,198.231232 165.058395,198.231232 161.829391,198.231232 
	C161.829391,201.242554 161.829391,204.019806 161.829391,206.797043 
	C156.178070,206.864395 150.526733,206.931747 144.440002,206.995178 
	C144.004593,206.991226 144.070862,207.069839 144.037048,206.606979 
	C144.003220,203.538040 144.003220,200.931961 144.003220,197.973114 
	C147.133087,197.973114 149.868576,197.973114 152.683105,197.973114 
	C152.683105,188.767212 152.683105,179.932037 152.683105,170.931213 
	C149.554214,170.931213 146.742462,170.931213 143.966888,170.964020 
	C144.003082,170.996811 144.068695,171.069183 144.037857,170.607269 
	C144.007019,167.543030 144.007019,164.940704 144.007019,161.976151 
	C140.818878,161.976151 138.087158,161.976151 134.834137,161.976151 
	C134.834137,155.754868 134.834137,149.894226 134.834137,144.316544 
	C128.568253,144.316544 122.837379,144.316544 117.078362,144.316544 
	C117.078362,147.441879 117.078362,150.250427 116.615150,153.032745 
	C113.558670,153.006500 110.965408,153.006500 107.855499,153.006500 
	C107.855499,149.759918 107.855499,146.903793 107.855499,143.930405 
	C104.530861,143.930405 101.730377,143.930405 98.964798,143.965210 
	C98.999687,144.000015 99.069313,144.069809 99.041443,143.606400 
	C99.013565,140.540085 99.013565,137.937195 99.013565,134.828766 
	C105.261833,134.828766 111.128021,134.828766 117.336716,134.828766 
	C117.336716,131.564926 117.336716,128.827408 117.336716,126.362228 
	C120.450317,126.362228 123.177483,126.362228 126.302261,126.362228 
	C126.302261,129.461105 126.302261,132.195633 126.302261,134.662796 
	C129.457291,134.662796 132.189499,134.662796 135.297852,134.662796 
	C135.297852,131.576141 135.297852,128.839447 135.297852,125.722702 
	C138.430573,125.722702 141.164154,125.722702 144.253723,125.722702 
	C144.253723,122.578117 144.253723,119.837570 144.253723,117.068535 
	C147.445496,117.068535 150.257278,117.068535 153.033813,117.034904 
	C152.998581,117.001274 152.931259,116.930870 152.962646,117.393799 
	C152.994034,120.446686 152.994034,123.036636 152.994034,126.070366 
	C159.280731,126.070366 165.176041,126.070366 171.035919,126.035156 
	C171.000488,125.999939 170.929794,125.929337 170.955841,126.391991 
	C170.981873,129.433090 170.981873,132.011536 170.981873,135.068954 
	C174.254456,135.068954 177.161652,135.068954 180.033417,135.034592 
	C179.997971,135.000229 179.926117,134.932480 179.926117,134.932480 
	C179.926117,137.744339 179.926117,140.556198 179.926117,143.740494 
	C177.138168,143.740494 174.393509,143.740494 171.319427,143.740494 
	C171.319427,146.839127 171.319427,149.583496 171.319427,152.852661 
	C182.903641,152.852661 194.752258,152.852661 206.795319,152.852661 
	C206.795319,156.102356 206.795319,158.834457 206.795319,161.961472 
	C203.917282,161.961472 201.180099,161.961472 198.220413,161.961472 
	C198.220413,168.078720 198.220413,173.805511 198.220413,180.005402 
	C200.925079,180.005402 203.530014,180.005402 206.561829,180.012711 
	C206.988724,180.020020 206.916245,179.952118 206.916245,179.952118 
	C206.916245,185.865005 206.916245,191.777878 206.916245,197.874893 
	C203.938858,197.874893 201.329346,197.874893 198.355469,197.874893 
	C198.355469,203.885208 198.355469,209.716400 198.355469,215.997086 
	C200.944977,215.997086 203.544632,215.997086 206.572510,215.999588 
	C207.000717,216.002090 206.932816,215.932312 206.963058,216.388336 
	C206.972549,219.586136 206.951782,222.327927 206.963043,225.031662 
	C206.995056,224.993622 207.063034,224.921066 207.063034,224.921066 
M152.146164,144.004593 
	C149.545532,144.004593 146.944901,144.004593 144.356903,144.004593 
	C144.356903,147.259506 144.356903,150.104401 144.356903,152.670380 
	C147.456131,152.670380 150.191956,152.670380 152.933334,152.670380 
	C152.933334,149.533630 152.933334,146.727173 153.856934,143.995773 
	C156.453384,143.995773 159.049850,143.995773 161.649719,143.995773 
	C161.649719,140.737167 161.649719,137.900528 161.649719,135.332794 
	C158.554794,135.332794 155.826767,135.332794 153.072342,135.332794 
	C153.072342,138.463272 153.072342,141.261475 152.146164,144.004593 
M167.606216,161.999878 
	C165.836884,161.999878 164.067551,161.999878 162.260529,161.999878 
	C162.260529,171.268661 162.260529,180.001297 162.260529,188.743652 
	C171.257797,188.743652 179.988770,188.743652 188.740601,188.743652 
	C188.740601,179.753342 188.740601,171.021667 188.740601,161.990936 
	C181.844482,161.990936 175.213013,161.990936 167.606216,161.999878 
z"/>
<path fill="#020202" opacity="1.000000" stroke="none" 
	d="
M63.077053,90.057785 
	C63.077053,87.246948 63.077053,84.436119 63.077053,81.310822 
	C71.940384,81.310822 80.777054,81.310822 90.016815,81.310822 
	C90.016815,84.138924 90.016815,86.880409 90.016815,89.799744 
	C93.137360,89.799744 95.858238,89.799744 98.964783,89.799744 
	C98.964783,86.890114 98.964783,84.140411 98.964783,80.994812 
	C101.939392,80.994812 104.547066,80.994812 107.579720,81.430176 
	C108.004692,84.478714 108.004692,87.091888 108.004692,90.077408 
	C111.213524,90.077408 113.956551,90.077408 117.091171,90.077408 
	C117.091171,93.198090 117.091171,95.945587 117.091171,98.743980 
	C123.231651,98.743980 128.964920,98.743980 134.747437,98.743980 
	C134.747437,95.742455 134.747437,93.009872 134.747437,89.906601 
	C131.752563,89.906601 129.005768,89.906601 126.126686,89.906601 
	C126.126686,86.733772 126.126686,83.938332 126.583252,81.077393 
	C135.608398,81.011894 144.176987,81.011894 152.764938,81.011894 
	C152.764938,74.748947 152.764938,69.024025 152.764938,63.226265 
	C149.789764,63.226265 147.059631,63.226265 143.960236,63.226265 
	C143.960236,66.183411 143.960236,68.922226 143.960236,71.770477 
	C140.849976,71.770477 138.119873,71.770477 134.956482,71.770477 
	C134.956482,68.825500 134.956482,66.085258 134.956482,63.235741 
	C131.796188,63.235741 129.077957,63.235741 126.272331,63.235741 
	C126.272331,69.417114 126.272331,75.344482 125.779068,81.143585 
	C119.504845,81.038635 113.723900,81.061958 107.942947,81.085281 
	C107.963791,78.340309 107.984634,75.595329 108.001030,72.425842 
	C107.996582,72.001335 107.932274,72.067802 108.394180,72.024582 
	C111.450447,71.981361 114.044807,71.981361 116.668098,71.981361 
	C116.668098,68.763565 116.668098,65.928322 116.668098,62.931164 
	C113.529030,62.931164 110.729980,62.931164 107.965401,62.966667 
	C107.999878,63.002167 108.071754,63.070194 108.071754,63.070194 
	C108.071754,60.274170 108.071754,57.478146 108.071754,53.995518 
	C102.254623,53.995518 96.567520,53.995518 90.444191,53.988823 
	C90.007965,53.982124 90.081116,54.050465 90.081116,54.050465 
	C90.081116,51.243732 90.081116,48.436996 90.081116,45.270554 
	C87.172325,45.270554 84.426964,45.270554 81.339630,45.270554 
	C81.339630,42.195076 81.339630,39.460423 81.339630,36.184326 
	C83.895485,36.184326 86.758430,36.184326 90.010582,36.184326 
	C90.010582,33.060322 90.010582,30.458801 90.005005,27.427998 
	C89.999428,26.998714 89.930420,27.069744 90.386536,27.037865 
	C93.584824,27.026987 96.327003,27.047989 99.034576,27.036148 
	C98.999969,27.003309 98.934341,26.934053 98.959549,27.396469 
	C98.984749,30.439362 98.984749,33.019840 98.984749,36.070377 
	C102.253464,36.070377 105.162056,36.070377 108.031876,36.035744 
	C107.993095,36.001110 107.916862,35.930389 107.916862,35.930389 
	C107.916862,38.748943 107.916862,41.567497 107.916862,44.777344 
	C110.867744,44.777344 113.621780,44.777344 116.772369,44.777344 
	C116.772369,47.895859 116.772369,50.642330 116.772369,53.777046 
	C131.905273,53.777046 146.646957,53.777046 161.780151,53.777046 
	C161.780151,62.885223 161.780151,71.621902 161.780151,80.757355 
	C164.892456,80.757355 167.633362,80.757355 170.806976,80.757355 
	C170.806976,86.888969 170.806976,92.637444 170.806976,98.991882 
	C173.799530,98.991882 176.393356,98.991882 179.401535,98.908073 
	C179.815903,98.824265 179.736038,98.752815 179.736038,98.752815 
	C179.736038,101.693649 179.736038,104.634476 179.736038,107.948700 
	C176.905319,107.948700 174.162903,107.948700 170.995285,107.948700 
	C170.995285,110.918137 170.995285,113.530602 170.998001,116.572227 
	C171.000717,117.001396 171.068680,116.931244 170.597473,116.966507 
	C164.394592,116.978134 158.662933,116.954498 152.931259,116.930862 
	C152.931259,116.930870 152.998581,117.001274 153.001953,116.572563 
	C153.005310,113.532341 153.005310,110.920837 153.005310,107.958916 
	C156.192261,107.958916 158.941269,107.958916 161.787323,107.958916 
	C161.787323,104.846321 161.787323,102.109886 161.787323,98.983078 
	C158.838898,98.983078 156.100220,98.983078 152.984741,98.983078 
	C152.984741,95.855698 152.984741,93.113251 152.984741,90.221420 
	C149.861542,90.221420 147.129074,90.221420 143.966309,90.221420 
	C143.966309,96.167961 143.966309,101.907875 143.966309,108.025040 
	C140.807709,108.025040 138.073257,108.025040 134.970825,108.025040 
	C134.970825,111.157997 134.970825,113.903854 134.970825,116.806305 
	C131.854721,116.806305 129.120575,116.806305 125.990562,116.806305 
	C125.990562,113.878716 125.990562,111.124435 125.990562,108.192825 
	C122.859848,108.192825 120.126251,108.192825 116.822952,108.192825 
	C116.822952,111.247604 116.822952,114.111626 116.822952,116.814133 
	C113.635818,116.814133 111.019928,116.814133 107.854919,116.814133 
	C107.854919,110.774239 107.854919,104.895988 107.854919,99.328743 
	C104.555969,99.328743 101.815277,99.328743 98.746635,99.328743 
	C98.746635,108.402847 98.746635,117.146324 98.746635,125.675919 
	C95.649963,125.675919 92.912560,125.675919 89.792236,125.675919 
	C89.792236,122.607040 89.792236,119.860519 89.792236,117.085190 
	C86.576553,117.085190 83.761826,117.085190 80.972275,116.611565 
	C80.997437,110.440392 80.997437,104.742851 80.997437,98.931229 
	C77.529617,98.931229 74.730026,98.931229 71.967377,98.963387 
	C72.004311,98.995544 72.068649,99.069405 72.037651,98.608261 
	C72.006653,95.457397 72.006653,92.767685 72.006653,89.931770 
	C68.478348,89.931770 65.704674,89.931770 62.968781,89.961815 
	C63.006554,89.991859 63.077053,90.057785 63.077053,90.057785 
z"/>
<path fill="#020202" opacity="1.000000" stroke="none" 
	d="
M45.075241,134.935059 
	C36.270950,134.935059 27.466660,134.935059 18.257210,134.935059 
	C18.257210,143.879761 18.257210,152.614029 18.257210,161.673447 
	C15.131483,161.673447 12.391738,161.673447 9.321775,161.673447 
	C9.321775,135.050201 9.321775,108.219742 9.321775,81.193710 
	C24.131374,81.193710 38.853767,81.193710 53.953259,81.193710 
	C53.953259,84.092331 53.953259,86.836639 53.953259,90.009148 
	C56.925243,90.009148 59.536976,90.009148 62.612885,90.033463 
	C63.077053,90.057785 63.006554,89.991859 63.004936,90.424156 
	C63.003319,93.557663 63.003319,96.258873 63.003319,99.069405 
	C66.492531,99.069405 69.280586,99.069405 72.068649,99.069405 
	C72.068649,99.069405 72.004311,98.995544 72.000687,99.425110 
	C71.997070,102.456940 71.997070,105.059189 71.997070,108.007706 
	C62.823589,108.007706 54.120483,108.007706 44.930477,108.007706 
	C44.930477,117.269722 44.930477,126.169037 44.968987,135.037552 
	C45.007496,135.006744 45.075241,134.935059 45.075241,134.935059 
M19.756735,90.001221 
	C18.944744,92.788582 18.132753,95.575943 17.201303,98.773376 
	C27.170019,98.773376 35.906677,98.773376 44.788597,98.773376 
	C44.788597,95.811386 44.788597,93.081764 44.788597,89.996407 
	C36.623535,89.996407 28.669662,89.996407 19.756735,90.001221 
M28.641230,108.003586 
	C28.108290,108.277206 27.114843,108.543518 27.110365,108.825531 
	C27.019667,114.536331 27.042408,120.248924 27.042408,125.683029 
	C30.407690,125.683029 33.135166,125.683029 35.733292,125.683029 
	C35.733292,119.647285 35.733292,113.941208 35.733292,108.000107 
	C33.513042,108.000107 31.553368,108.000107 28.641230,108.003586 
z"/>
<path fill="#020202" opacity="1.000000" stroke="none" 
	d="
M72.000061,34.000008 
	C71.999855,46.805370 71.999855,59.110737 71.999855,71.709076 
	C51.065613,71.709076 30.337408,71.709076 9.312235,71.709076 
	C9.312235,51.052330 9.312235,30.325346 9.312235,9.297832 
	C29.979332,9.297832 50.705353,9.297832 72.000259,9.297832 
	C72.000259,17.308189 72.000259,25.404099 72.000061,34.000008 
M63.006355,19.714228 
	C62.406013,19.143501 61.808910,18.078465 61.204861,18.074505 
	C46.949329,17.981102 32.693054,18.002047 18.281900,18.002047 
	C18.281900,33.205669 18.281900,47.916954 18.281900,62.758652 
	C33.270786,62.758652 47.983883,62.758652 63.008503,62.758652 
	C63.008503,48.567711 63.008503,34.624241 63.006355,19.714228 
z"/>
<path fill="#020202" opacity="1.000000" stroke="none" 
	d="
M71.999466,202.000000 
	C71.999458,212.806870 71.999458,223.113739 71.999458,233.712036 
	C51.043060,233.712036 30.315815,233.712036 9.301785,233.712036 
	C9.301785,213.017410 9.301785,192.289078 9.301785,171.274307 
	C29.998194,171.274307 50.728397,171.274307 71.999481,171.274307 
	C71.999481,181.304520 71.999481,191.402267 71.999466,202.000000 
M18.047871,201.500107 
	C18.047871,209.257324 18.047871,217.014557 18.047871,224.704010 
	C33.352493,224.704010 48.073509,224.704010 62.755550,224.704010 
	C62.755550,209.682770 62.755550,194.960022 62.755550,180.299011 
	C47.739716,180.299011 33.020161,180.299011 18.047415,180.299011 
	C18.047415,187.233017 18.047415,193.866623 18.047871,201.500107 
z"/>
<path fill="#020202" opacity="1.000000" stroke="none" 
	d="
M171.019180,31.000086 
	C171.019180,23.525297 171.019180,16.550470 171.019180,9.288196 
	C191.959335,9.288196 212.690079,9.288196 233.717224,9.288196 
	C233.717224,29.949533 233.717224,50.681561 233.717224,71.709511 
	C213.063919,71.709511 192.330994,71.709511 171.019180,71.709511 
	C171.019180,58.338158 171.019180,44.919106 171.019180,31.000086 
M180.774887,62.894051 
	C195.506409,62.894051 210.237915,62.894051 224.662292,62.894051 
	C224.662292,47.535442 224.662292,32.804783 224.662292,18.373705 
	C209.562622,18.373705 194.831284,18.373705 180.104767,18.373705 
	C180.104767,33.237652 180.104767,47.722294 180.774887,62.894051 
z"/>
<path fill="#020202" opacity="1.000000" stroke="none" 
	d="
M143.969818,206.953369 
	C143.935043,215.813263 143.935043,224.710999 143.935043,233.807007 
	C140.862473,233.807007 138.140381,233.807007 135.054810,233.807007 
	C135.054810,227.950195 135.054810,222.223770 135.054810,215.991119 
	C129.139099,215.991119 123.570633,215.991119 117.578278,216.051910 
	C117.154396,216.112717 117.234093,216.185181 117.234093,216.185181 
	C117.096497,213.261795 116.958900,210.338409 116.801971,207.004257 
	C111.037064,207.004257 105.452805,207.004257 99.431778,207.002258 
	C98.995003,207.000259 99.070633,207.068604 99.036743,206.606125 
	C99.002853,203.545273 99.002853,200.946899 99.002853,197.991531 
	C105.157143,197.991531 110.891495,197.991531 116.813095,197.991531 
	C116.813095,194.897171 116.813095,192.170990 116.813095,188.931137 
	C107.743019,188.931137 98.837364,188.931137 89.964920,188.967987 
	C89.998131,189.004822 90.070251,189.072937 90.070251,189.072937 
	C90.070251,186.266449 90.070251,183.459961 90.070251,180.130249 
	C87.107491,180.130249 84.236038,180.130249 81.003937,180.130249 
	C81.003937,174.034500 81.003937,168.452896 81.000732,162.433533 
	C80.997520,161.995789 80.930931,162.069504 81.402557,162.037720 
	C87.457443,162.005951 93.040710,162.005951 99.004547,162.005951 
	C99.004547,168.175858 99.004547,173.900040 99.004547,179.806488 
	C102.122330,179.806488 104.847694,179.806488 108.106781,179.806488 
	C108.106781,173.783218 108.106781,167.918137 108.106781,161.943909 
	C111.451744,161.943909 114.263832,161.943909 117.039940,162.404449 
	C117.003967,165.456116 117.003967,168.047256 117.003967,171.069183 
	C126.311493,171.069183 135.190094,171.069183 144.068695,171.069183 
	C144.068695,171.069183 144.003082,170.996811 143.998978,171.425446 
	C143.994873,174.457855 143.994873,177.061646 143.994873,180.027985 
	C140.808884,180.027985 138.070969,180.027985 134.992218,180.027985 
	C134.992218,183.142105 134.992218,185.879532 134.992218,188.992401 
	C131.905441,188.992401 129.175110,188.992401 126.353668,188.992401 
	C126.353668,195.212967 126.353668,201.043503 126.353668,207.069839 
	C132.495758,207.069839 138.283310,207.069839 144.070862,207.069839 
	C144.070862,207.069839 144.004593,206.991226 143.969818,206.953369 
z"/>
<path fill="#020202" opacity="1.000000" stroke="none" 
	d="
M143.929764,18.068241 
	C149.736008,18.068241 155.542252,18.068241 161.676117,18.068241 
	C161.676117,26.879995 161.676117,35.604824 161.676117,44.667412 
	C150.085114,44.667412 138.245407,44.667412 126.019333,44.667412 
	C126.019333,38.883965 126.019333,33.142715 126.019333,27.201065 
	C122.903442,27.201065 120.167770,27.201065 117.042801,27.201065 
	C117.042801,30.063599 117.042801,32.807064 117.042801,35.987804 
	C114.066475,35.987804 111.455109,35.987804 108.380310,35.959099 
	C107.916862,35.930389 107.993095,36.001110 108.004257,35.573120 
	C108.015419,32.440372 108.015419,29.735611 108.015419,26.934053 
	C104.504921,26.934053 101.719635,26.934053 98.934341,26.934053 
	C98.934341,26.934053 98.999969,27.003309 98.991287,26.576021 
	C98.982597,23.457190 98.982597,20.765646 98.982597,17.930557 
	C95.476746,17.930557 92.703880,17.930557 89.964294,17.967438 
	C89.997566,18.004316 90.069824,18.072496 90.069824,18.072496 
	C90.069824,15.260254 90.069824,12.448011 90.069824,9.317535 
	C95.935410,9.317535 101.783936,9.317535 108.021790,9.317535 
	C108.021790,12.144114 108.021790,14.876169 108.021790,18.002626 
	C116.976303,18.002626 125.552162,18.002626 134.566132,18.000324 
	C135.004257,17.998022 134.930450,17.931765 134.962082,18.403378 
	C134.993713,24.456749 134.993713,30.038506 134.993713,35.644497 
	C141.286102,35.644497 147.117050,35.644497 152.661133,35.644497 
	C152.661133,32.550125 152.661133,29.816160 152.661133,26.723137 
	C149.583664,26.723137 146.847214,26.723137 144.069214,26.723137 
	C144.069214,23.540789 144.069214,20.736137 144.032928,17.964237 
	C143.996658,17.996992 143.929764,18.068241 143.929764,18.068241 
z"/>
<path fill="#020202" opacity="1.000000" stroke="none" 
	d="
M207.022583,180.056335 
	C207.056442,177.269333 207.056442,174.446030 207.056442,171.251556 
	C212.819687,171.251556 218.568802,171.251556 224.660217,171.251556 
	C224.660217,165.167068 224.660217,159.432007 224.660217,153.304825 
	C222.171280,153.304825 219.430603,153.304825 216.298355,153.304825 
	C216.298355,150.196381 216.298355,147.452271 216.298355,144.299805 
	C213.192001,144.299805 210.452194,144.299805 207.349731,144.299805 
	C207.349731,141.167984 207.349731,138.424789 207.349731,135.331772 
	C212.904205,135.331772 218.771179,135.331772 224.851044,135.331772 
	C224.851044,138.032394 224.851044,140.651962 224.851044,143.833221 
	C227.897949,143.833221 230.763428,143.833221 233.809219,143.833221 
	C233.809219,156.119858 233.809219,167.846558 233.809219,179.995331 
	C225.076614,179.995331 216.470459,179.995331 207.390274,179.973724 
	C206.916245,179.952118 206.988724,180.020020 207.022583,180.056335 
z"/>
<path fill="#030303" opacity="1.000000" stroke="none" 
	d="
M98.960342,206.962891 
	C98.925682,209.734924 98.925682,212.544327 98.925682,215.737366 
	C96.121986,215.737366 93.379982,215.737366 90.315697,215.737366 
	C90.315697,218.845779 90.315697,221.586426 90.315697,224.725784 
	C92.852386,224.725784 95.592224,224.725784 98.663559,224.725784 
	C98.663559,227.840210 98.663559,230.579834 98.663559,233.664917 
	C93.172363,233.664917 87.441887,233.664917 81.351646,233.664917 
	C81.351646,219.093384 81.351646,204.271454 81.351646,189.003387 
	C83.932388,189.003387 86.538887,189.003387 89.607819,189.038162 
	C90.070251,189.072937 89.998131,189.004822 89.995529,189.439758 
	C89.992935,195.579712 89.992935,201.284714 89.992935,207.068604 
	C93.463791,207.068604 96.267212,207.068604 99.070633,207.068604 
	C99.070633,207.068604 98.995003,207.000259 98.960342,206.962891 
z"/>
<path fill="#030303" opacity="1.000000" stroke="none" 
	d="
M170.965210,117.034943 
	C182.838181,117.068481 194.746628,117.068481 206.801178,117.068481 
	C206.801178,120.160805 206.801178,122.894897 206.801178,126.014069 
	C203.877945,126.014069 201.141922,126.014069 198.020569,126.014069 
	C198.020569,132.118454 198.020569,137.852875 198.020569,143.790009 
	C194.899155,143.790009 192.169205,143.790009 189.048645,143.790009 
	C189.048645,140.938293 189.048645,138.190994 189.048645,134.996368 
	C186.072128,134.996368 183.461426,134.996368 180.388412,134.964417 
	C179.926117,134.932480 179.997971,135.000229 180.001526,134.572693 
	C180.005096,131.446274 180.005096,128.747391 180.005096,125.929337 
	C176.494797,125.929337 173.712296,125.929337 170.929794,125.929337 
	C170.929794,125.929337 171.000488,125.999939 171.004150,125.578979 
	C171.028107,122.415764 171.048401,119.673508 171.068680,116.931244 
	C171.068680,116.931244 171.000717,117.001396 170.965210,117.034943 
z"/>
<path fill="#FCFCFC" opacity="1.000000" stroke="none" 
	d="
M198.120163,81.044952 
	C197.485397,80.305710 196.850647,79.566467 196.215897,78.827225 
	C196.969406,78.346214 197.711716,77.473526 198.478363,77.451561 
	C201.920151,77.352997 205.369614,77.468536 208.814926,77.558945 
	C213.707108,77.687317 218.622940,77.613091 223.481216,78.099472 
	C226.970352,78.448799 227.939850,80.560463 225.382599,83.374359 
	C222.975159,78.497612 219.215805,82.257050 216.333710,80.863014 
	C216.333710,84.221901 216.333710,87.064903 216.333710,89.932457 
	C219.470200,89.932457 222.272125,89.932457 225.040726,90.381706 
	C225.018478,93.517380 225.029541,96.203796 225.040619,98.890221 
	C222.395401,99.519669 222.395401,99.519669 221.599731,95.992401 
	C219.969177,95.992401 218.388443,95.992401 216.537659,95.992401 
	C216.509445,96.584000 216.459290,97.635452 215.797562,98.836380 
	C214.457062,98.934280 213.728119,98.882713 212.992584,98.501099 
	C212.626984,97.597420 212.267960,97.023781 211.908936,96.450150 
	C211.606201,97.240089 211.303467,98.030045 210.565155,98.898849 
	C208.173752,98.791855 206.628967,98.921089 206.958633,101.644508 
	C207.210312,103.723724 207.080292,105.849152 207.120056,107.954025 
	C204.384537,107.641418 201.649002,107.328812 198.463058,106.547775 
	C197.984406,100.697487 197.956192,95.315628 198.390747,89.965012 
	C201.428665,89.996262 204.003845,89.996262 206.712173,89.996262 
	C206.712173,86.815620 206.712173,83.984222 206.712173,81.044952 
	C203.653397,81.044952 200.886780,81.044952 198.120163,81.044952 
z"/>
<path fill="#030303" opacity="1.000000" stroke="none" 
	d="
M81.033722,161.961792 
	C75.155670,161.927780 69.241417,161.927780 63.190994,161.927780 
	C63.190994,158.848068 63.190994,156.119797 63.190994,153.021423 
	C66.116226,153.021423 68.855560,153.021423 71.997780,153.021423 
	C71.997780,150.063980 71.997780,147.460480 72.000107,144.428848 
	C72.002426,144.000702 71.931717,144.069244 72.393768,144.034698 
	C75.558205,144.000153 78.260597,144.000153 80.931641,144.000153 
	C80.931641,140.499573 80.931641,137.712753 81.394745,134.959335 
	C84.451965,134.992722 87.046082,134.992722 90.151825,134.992722 
	C90.151825,138.208588 90.151825,141.064987 90.151825,144.069809 
	C93.469795,144.069809 96.269554,144.069809 99.069313,144.069809 
	C99.069313,144.069809 98.999687,144.000015 98.998566,144.427643 
	C98.997452,147.452057 98.997452,150.048859 98.997452,153.138855 
	C92.743584,153.138855 86.891640,153.138855 80.930931,153.138855 
	C80.930931,156.456467 80.930931,159.262985 80.930931,162.069504 
	C80.930931,162.069504 80.997520,161.995789 81.033722,161.961792 
z"/>
<path fill="#030303" opacity="1.000000" stroke="none" 
	d="
M72.038422,143.967102 
	C66.268997,143.933487 60.463589,143.933487 54.289024,143.933487 
	C54.289024,146.808670 54.289024,149.549576 54.289024,152.677948 
	C51.202976,152.677948 48.464054,152.677948 45.166214,152.677948 
	C45.166214,155.906021 45.166214,158.771652 45.166214,161.814880 
	C41.878422,161.814880 39.146690,161.814880 36.206993,161.814880 
	C36.206993,155.888611 36.206993,150.154617 36.206993,144.038177 
	C39.071064,144.038177 41.809025,144.038177 45.004566,144.038177 
	C45.004566,141.070923 45.004566,138.464294 45.039902,135.396362 
	C45.075241,134.935059 45.007496,135.006744 45.441139,135.005951 
	C54.610069,134.983765 63.345352,134.962387 72.036308,135.394928 
	C71.971893,138.588974 71.951805,141.329117 71.931717,144.069244 
	C71.931717,144.069244 72.002426,144.000702 72.038422,143.967102 
z"/>
<path fill="#030303" opacity="1.000000" stroke="none" 
	d="
M197.927979,89.933769 
	C197.956192,95.315628 197.984406,100.697487 198.095398,106.540787 
	C195.365494,107.472641 192.552856,107.943062 189.292572,108.488342 
	C189.292572,105.194954 189.292572,102.443916 189.292572,98.983757 
	C186.196838,98.983757 183.451569,98.983757 180.221161,98.868286 
	C179.736038,98.752815 179.815903,98.824265 179.849854,98.854469 
	C179.883820,93.082504 179.883820,87.280327 179.883820,80.982834 
	C182.548584,80.982834 184.824539,80.982834 187.933716,81.119049 
	C188.932693,84.139824 189.098419,87.024384 189.273331,90.068703 
	C192.478607,90.068703 195.274017,90.068703 198.034241,90.034775 
	C197.999069,90.000847 197.927979,89.933769 197.927979,89.933769 
z"/>
<path fill="#020202" opacity="1.000000" stroke="none" 
	d="
M224.925873,215.932495 
	C224.925873,218.742020 224.925873,221.551529 224.925873,224.740250 
	C227.852707,224.740250 230.593735,224.740250 233.667877,224.740250 
	C233.667877,227.838455 233.667877,230.575012 233.667877,233.663086 
	C225.096771,233.663086 216.255173,233.663086 207.006348,233.663086 
	C207.006348,231.062515 207.006348,228.456192 207.034698,225.385468 
	C207.063034,224.921066 206.995056,224.993622 207.425354,224.999969 
	C210.558182,225.006302 213.260712,225.006302 216.069519,225.006302 
	C216.069519,221.503372 216.069519,218.717606 216.033356,215.964539 
	C215.997208,215.997223 215.931854,216.069565 216.387604,216.035004 
	C219.585144,216.023331 222.326935,216.046188 225.033249,216.034653 
	C224.997787,216.000244 224.925873,215.932495 224.925873,215.932495 
z"/>
<path fill="#020202" opacity="1.000000" stroke="none" 
	d="
M216.067810,207.068710 
	C216.067810,204.253067 216.067810,201.437424 216.067810,198.309006 
	C221.934647,198.309006 227.793945,198.309006 233.833862,198.309006 
	C233.833862,204.118439 233.833862,209.840729 233.833862,215.996262 
	C231.066605,215.996262 228.459549,215.996262 225.389191,215.964386 
	C224.925873,215.932495 224.997787,216.000244 225.002411,215.572296 
	C225.007019,212.442093 225.007019,209.739838 225.007019,206.929703 
	C221.502243,206.929703 218.716446,206.929703 215.963455,206.965927 
	C215.996246,207.002151 216.067810,207.068710 216.067810,207.068710 
z"/>
<path fill="#020202" opacity="1.000000" stroke="none" 
	d="
M234.006683,120.078209 
	C234.000427,122.186157 234.000427,123.817253 234.000427,125.724609 
	C227.999863,125.724609 222.164261,125.724609 216.186447,125.724609 
	C216.186447,122.801979 216.186447,120.085144 216.186447,117.002266 
	C221.476471,117.002266 226.565842,116.886131 231.639221,117.118706 
	C232.466660,117.156639 233.223495,118.735001 234.006683,120.078209 
z"/>
<path fill="#020202" opacity="1.000000" stroke="none" 
	d="
M89.973892,53.945457 
	C89.939812,59.703232 89.939812,65.497673 89.939812,71.645836 
	C87.186729,71.645836 84.456573,71.645836 81.359970,71.645836 
	C81.359970,66.111046 81.359970,60.270771 81.359970,54.008148 
	C83.944901,54.008148 86.548668,54.008148 89.616776,54.029305 
	C90.081116,54.050465 90.007965,53.982124 89.973892,53.945457 
z"/>
<path fill="#030303" opacity="1.000000" stroke="none" 
	d="
M90.035500,26.964790 
	C87.275169,26.930864 84.478767,26.930864 81.339905,26.930864 
	C81.339905,24.069429 81.339905,21.231363 81.339905,18.004265 
	C83.963692,18.004265 86.554276,18.004265 89.607338,18.038380 
	C90.069824,18.072496 89.997566,18.004316 89.995026,18.423605 
	C89.971802,21.585176 89.951111,24.327461 89.930420,27.069744 
	C89.930420,27.069744 89.999428,26.998714 90.035500,26.964790 
z"/>
<path fill="#030303" opacity="1.000000" stroke="none" 
	d="
M207.034332,216.037323 
	C207.067932,213.282440 207.067932,210.492340 207.067932,207.016190 
	C209.723053,207.016190 212.432495,207.016190 215.604874,207.042450 
	C216.067810,207.068710 215.996246,207.002151 215.996857,207.421967 
	C215.975586,210.584366 215.953720,213.326965 215.931854,216.069565 
	C215.931854,216.069565 215.997208,215.997223 215.577148,215.992859 
	C212.415649,215.969757 209.674240,215.951035 206.932816,215.932312 
	C206.932816,215.932312 207.000717,216.002090 207.034332,216.037323 
z"/>
<path fill="#010101" opacity="1.000000" stroke="none" 
	d="
M117.115364,216.075623 
	C117.076332,218.833084 117.076332,221.627625 117.076332,224.709564 
	C114.108505,224.709564 111.375519,224.709564 108.319092,224.709564 
	C108.319092,222.137573 108.319092,219.407684 108.319092,215.991913 
	C110.811234,215.991913 113.539528,215.991913 116.750961,216.088547 
	C117.234093,216.185181 117.154396,216.112717 117.115364,216.075623 
z"/>
<path fill="#030303" opacity="1.000000" stroke="none" 
	d="
M135.038254,18.034134 
	C135.072250,15.271739 135.072250,12.473233 135.072250,9.337025 
	C137.911301,9.337025 140.751450,9.337025 143.991119,9.337025 
	C143.991119,11.960618 143.991119,14.552032 143.960449,17.605843 
	C143.929764,18.068241 143.996658,17.996992 143.576752,17.995804 
	C140.414703,17.973663 137.672577,17.952713 134.930450,17.931765 
	C134.930450,17.931765 135.004257,17.998022 135.038254,18.034134 
z"/>
<path fill="#030303" opacity="1.000000" stroke="none" 
	d="
M108.030174,71.969559 
	C105.268517,71.937782 102.473259,71.937782 99.335648,71.937782 
	C99.335648,69.065826 99.335648,66.233627 99.335648,63.001282 
	C101.960823,63.001282 104.553612,63.001282 107.609070,63.035736 
	C108.071754,63.070194 107.999878,63.002167 107.999001,63.422672 
	C107.976173,66.584717 107.954224,69.326263 107.932274,72.067802 
	C107.932274,72.067802 107.996582,72.001335 108.030174,71.969559 
z"/>
<path fill="#030303" opacity="1.000000" stroke="none" 
	d="
M212.999191,98.831146 
	C213.728119,98.882713 214.457062,98.934280 215.553101,99.007111 
	C215.920197,101.826035 215.920197,104.623695 215.920197,107.989204 
	C213.196716,107.989204 210.608276,107.989204 207.569946,107.971611 
	C207.080292,105.849152 207.210312,103.723724 206.958633,101.644508 
	C206.628967,98.921089 208.173752,98.791855 210.894958,98.975754 
	C212.106628,98.926247 212.552902,98.878693 212.999191,98.831146 
z"/>
<path fill="#030303" opacity="1.000000" stroke="none" 
	d="
M198.068542,81.456352 
	C200.886780,81.044952 203.653397,81.044952 206.712173,81.044952 
	C206.712173,83.984222 206.712173,86.815620 206.712173,89.996262 
	C204.003845,89.996262 201.428665,89.996262 198.390747,89.965012 
	C197.927979,89.933769 197.999069,90.000847 197.998840,89.627556 
	C197.943069,88.169029 197.887527,87.083794 197.832001,85.998558 
	C197.893631,84.621620 197.955276,83.244690 198.068542,81.456352 
z"/>
<path fill="#030303" opacity="1.000000" stroke="none" 
	d="
M225.493729,98.942795 
	C225.029541,96.203796 225.018478,93.517380 225.004639,90.415588 
	C225.001846,90.000221 224.930573,90.068939 225.380951,90.038544 
	C228.525253,90.018517 231.219147,90.028877 233.913055,90.039238 
	C233.913055,92.906334 233.913055,95.773430 233.913055,98.995377 
	C231.043106,98.995377 228.494965,98.995377 225.493729,98.942795 
z"/>
<path fill="#030303" opacity="1.000000" stroke="none" 
	d="
M225.037933,89.966339 
	C222.272125,89.932457 219.470200,89.932457 216.333710,89.932457 
	C216.333710,87.064903 216.333710,84.221901 216.333710,80.863014 
	C219.215805,82.257050 222.975159,78.497612 225.089203,83.566940 
	C225.120056,84.169518 225.072998,84.337654 225.018555,85.173714 
	C224.984283,87.250740 224.957428,88.659843 224.930573,90.068939 
	C224.930573,90.068939 225.001846,90.000221 225.037933,89.966339 
z"/>
<path fill="#FCFCFC" opacity="1.000000" stroke="none" 
	d="
M197.489380,86.045364 
	C197.887527,87.083794 197.943069,88.169029 198.033997,89.661484 
	C195.274017,90.068703 192.478607,90.068703 189.273331,90.068703 
	C189.098419,87.024384 188.932693,84.139824 188.383392,81.042511 
	C189.294724,79.629807 190.589630,78.429863 191.884537,77.229912 
	C192.571991,78.943550 193.619461,80.612396 193.839890,82.384140 
	C194.037811,83.974930 193.326767,85.678802 192.858780,88.175140 
	C194.908951,87.179214 196.027847,86.635689 197.489380,86.045364 
z"/>
<path fill="#FCFCFC" opacity="1.000000" stroke="none" 
	d="
M225.380951,90.038544 
	C224.957428,88.659843 224.984283,87.250740 225.088989,85.425949 
	C226.704132,85.077072 228.240906,85.163231 229.778885,85.206520 
	C232.638901,85.287018 235.840073,84.976158 234.197632,89.810349 
	C231.219147,90.028877 228.525253,90.018517 225.380951,90.038544 
z"/>
<path fill="#FCFCFC" opacity="1.000000" stroke="none" 
	d="
M99.041443,143.606400 
	C96.269554,144.069809 93.469795,144.069809 90.151825,144.069809 
	C90.151825,141.064987 90.151825,138.208588 90.151825,134.992722 
	C87.046082,134.992722 84.451965,134.992722 81.428818,134.995300 
	C80.999779,134.997864 81.068848,135.068878 81.037537,134.597412 
	C81.026825,128.394058 81.047424,122.662155 81.041298,116.971718 
	C81.014572,117.013184 80.947105,117.085190 80.947105,117.085190 
	C83.761826,117.085190 86.576553,117.085190 89.792236,117.085190 
	C89.792236,119.860519 89.792236,122.607040 89.792236,125.675919 
	C92.912560,125.675919 95.649963,125.675919 98.746635,125.675919 
	C98.746635,117.146324 98.746635,108.402847 98.746635,99.328743 
	C101.815277,99.328743 104.555969,99.328743 107.854919,99.328743 
	C107.854919,104.895988 107.854919,110.774239 107.854919,116.814133 
	C111.019928,116.814133 113.635818,116.814133 116.822952,116.814133 
	C116.822952,114.111626 116.822952,111.247604 116.822952,108.192825 
	C120.126251,108.192825 122.859848,108.192825 125.990562,108.192825 
	C125.990562,111.124435 125.990562,113.878716 125.990562,116.806305 
	C129.120575,116.806305 131.854721,116.806305 134.970825,116.806305 
	C134.970825,113.903854 134.970825,111.157997 134.970825,108.025040 
	C138.073257,108.025040 140.807709,108.025040 143.966309,108.025040 
	C143.966309,101.907875 143.966309,96.167961 143.966309,90.221420 
	C147.129074,90.221420 149.861542,90.221420 152.984741,90.221420 
	C152.984741,93.113251 152.984741,95.855698 152.984741,98.983078 
	C156.100220,98.983078 158.838898,98.983078 161.787323,98.983078 
	C161.787323,102.109886 161.787323,104.846321 161.787323,107.958916 
	C158.941269,107.958916 156.192261,107.958916 153.005310,107.958916 
	C153.005310,110.920837 153.005310,113.532341 153.037186,116.606194 
	C150.257278,117.068535 147.445496,117.068535 144.253723,117.068535 
	C144.253723,119.837570 144.253723,122.578117 144.253723,125.722702 
	C141.164154,125.722702 138.430573,125.722702 135.297852,125.722702 
	C135.297852,128.839447 135.297852,131.576141 135.297852,134.662796 
	C132.189499,134.662796 129.457291,134.662796 126.302261,134.662796 
	C126.302261,132.195633 126.302261,129.461105 126.302261,126.362228 
	C123.177483,126.362228 120.450317,126.362228 117.336716,126.362228 
	C117.336716,128.827408 117.336716,131.564926 117.336716,134.828766 
	C111.128021,134.828766 105.261833,134.828766 99.013565,134.828766 
	C99.013565,137.937195 99.013565,140.540085 99.041443,143.606400 
z"/>
<path fill="#FDFDFD" opacity="1.000000" stroke="none" 
	d="
M144.037048,206.606979 
	C138.283310,207.069839 132.495758,207.069839 126.353668,207.069839 
	C126.353668,201.043503 126.353668,195.212967 126.353668,188.992401 
	C129.175110,188.992401 131.905441,188.992401 134.992218,188.992401 
	C134.992218,185.879532 134.992218,183.142105 134.992218,180.027985 
	C138.070969,180.027985 140.808884,180.027985 143.994873,180.027985 
	C143.994873,177.061646 143.994873,174.457855 143.962784,171.392639 
	C146.742462,170.931213 149.554214,170.931213 152.683105,170.931213 
	C152.683105,179.932037 152.683105,188.767212 152.683105,197.973114 
	C149.868576,197.973114 147.133087,197.973114 144.003220,197.973114 
	C144.003220,200.931961 144.003220,203.538040 144.037048,206.606979 
z"/>
<path fill="#FDFDFD" opacity="1.000000" stroke="none" 
	d="
M168.093872,161.995407 
	C175.213013,161.990936 181.844482,161.990936 188.740601,161.990936 
	C188.740601,171.021667 188.740601,179.753342 188.740601,188.743652 
	C179.988770,188.743652 171.257797,188.743652 162.260529,188.743652 
	C162.260529,180.001297 162.260529,171.268661 162.260529,161.999878 
	C164.067551,161.999878 165.836884,161.999878 168.093872,161.995407 
M171.000336,177.379013 
	C172.513489,183.366852 176.874130,178.330566 179.665268,180.197479 
	C179.665268,176.756775 179.665268,173.925415 179.665268,171.274597 
	C176.595245,171.274597 173.872406,171.274597 171.001251,171.274597 
	C171.001251,173.176331 171.001251,174.804474 171.000336,177.379013 
z"/>
<path fill="#FDFDFD" opacity="1.000000" stroke="none" 
	d="
M81.402557,162.037720 
	C80.930931,159.262985 80.930931,156.456467 80.930931,153.138855 
	C86.891640,153.138855 92.743584,153.138855 98.997452,153.138855 
	C98.997452,150.048859 98.997452,147.452057 98.963676,144.392822 
	C101.730377,143.930405 104.530861,143.930405 107.855499,143.930405 
	C107.855499,146.903793 107.855499,149.759918 107.855499,153.006500 
	C110.965408,153.006500 113.558670,153.006500 116.581329,152.997040 
	C117.010727,152.987579 116.929817,152.931534 116.963905,153.387344 
	C116.975616,156.584717 116.953232,159.326279 116.970360,162.040649 
	C117.009872,162.013458 117.075912,161.943909 117.075912,161.943909 
	C114.263832,161.943909 111.451744,161.943909 108.106781,161.943909 
	C108.106781,167.918137 108.106781,173.783218 108.106781,179.806488 
	C104.847694,179.806488 102.122330,179.806488 99.004547,179.806488 
	C99.004547,173.900040 99.004547,168.175858 99.004547,162.005951 
	C93.040710,162.005951 87.457443,162.005951 81.402557,162.037720 
z"/>
<path fill="#FCFCFC" opacity="1.000000" stroke="none" 
	d="
M144.037857,170.607269 
	C135.190094,171.069183 126.311493,171.069183 117.003967,171.069183 
	C117.003967,168.047256 117.003967,165.456116 117.039940,162.404449 
	C117.075912,161.943909 117.009872,162.013458 117.431580,162.002625 
	C120.439560,161.991806 123.025841,161.991806 125.659286,161.991806 
	C125.659286,158.733032 125.659286,155.897873 125.659286,152.931534 
	C122.519035,152.931534 119.724426,152.931534 116.929817,152.931534 
	C116.929817,152.931534 117.010727,152.987579 117.044540,153.023285 
	C117.078362,150.250427 117.078362,147.441879 117.078362,144.316544 
	C122.837379,144.316544 128.568253,144.316544 134.834137,144.316544 
	C134.834137,149.894226 134.834137,155.754868 134.834137,161.976151 
	C138.087158,161.976151 140.818878,161.976151 144.007019,161.976151 
	C144.007019,164.940704 144.007019,167.543030 144.037857,170.607269 
z"/>
<path fill="#FDFDFD" opacity="1.000000" stroke="none" 
	d="
M170.995224,206.989777 
	C173.801224,206.989777 176.607208,206.989777 179.783737,206.989777 
	C179.783737,204.109787 179.783737,201.365601 179.783737,198.300659 
	C182.874710,198.300659 185.612015,198.300659 188.678467,198.300659 
	C188.678467,203.859451 188.678467,209.588440 188.678467,215.659821 
	C183.043091,215.659821 177.191559,215.659821 170.999146,215.659821 
	C170.999146,212.999557 170.999146,210.391373 171.031815,207.351501 
	C171.064484,206.919815 170.995224,206.989777 170.995224,206.989777 
z"/>
<path fill="#FCFCFC" opacity="1.000000" stroke="none" 
	d="
M170.597473,116.966507 
	C171.048401,119.673508 171.028107,122.415764 171.039597,125.614197 
	C165.176041,126.070366 159.280731,126.070366 152.994034,126.070366 
	C152.994034,123.036636 152.994034,120.446686 152.962646,117.393799 
	C158.662933,116.954498 164.394592,116.978134 170.597473,116.966507 
z"/>
<path fill="#FCFCFC" opacity="1.000000" stroke="none" 
	d="
M171.100769,206.886536 
	C168.305725,206.896317 165.474411,206.939362 162.164734,206.827072 
	C161.686386,206.671738 161.764450,206.743256 161.796921,206.770142 
	C161.829391,204.019806 161.829391,201.242554 161.829391,198.231232 
	C165.058395,198.231232 167.779449,198.231232 170.997192,198.231232 
	C170.997192,200.900681 170.997192,203.495316 170.996216,206.539856 
	C170.995224,206.989777 171.064484,206.919815 171.100769,206.886536 
z"/>
<path fill="#FCFCFC" opacity="1.000000" stroke="none" 
	d="
M206.963058,216.388336 
	C209.674240,215.951035 212.415649,215.969757 215.613297,215.960159 
	C216.069519,218.717606 216.069519,221.503372 216.069519,225.006302 
	C213.260712,225.006302 210.558182,225.006302 207.393341,225.037994 
	C206.951782,222.327927 206.972549,219.586136 206.963058,216.388336 
z"/>
<path fill="#FDFDFD" opacity="1.000000" stroke="none" 
	d="
M152.933334,143.920700 
	C152.933334,146.727173 152.933334,149.533630 152.933334,152.670380 
	C150.191956,152.670380 147.456131,152.670380 144.356903,152.670380 
	C144.356903,150.104401 144.356903,147.259506 144.356903,144.004593 
	C146.944901,144.004593 149.545532,144.004593 152.575531,143.996368 
	C153.004898,143.988129 152.933334,143.920700 152.933334,143.920700 
z"/>
<path fill="#FCFCFC" opacity="1.000000" stroke="none" 
	d="
M153.038620,144.023895 
	C153.072342,141.261475 153.072342,138.463272 153.072342,135.332794 
	C155.826767,135.332794 158.554794,135.332794 161.649719,135.332794 
	C161.649719,137.900528 161.649719,140.737167 161.649719,143.995773 
	C159.049850,143.995773 156.453384,143.995773 153.395142,143.958237 
	C152.933334,143.920700 153.004898,143.988129 153.038620,144.023895 
z"/>
<path fill="#FCFCFC" opacity="1.000000" stroke="none" 
	d="
M170.955841,126.391991 
	C173.712296,125.929337 176.494797,125.929337 180.005096,125.929337 
	C180.005096,128.747391 180.005096,131.446274 180.036987,134.607056 
	C177.161652,135.068954 174.254456,135.068954 170.981873,135.068954 
	C170.981873,132.011536 170.981873,129.433090 170.955841,126.391991 
z"/>
<path fill="#FDFDFD" opacity="1.000000" stroke="none" 
	d="
M72.080635,134.941010 
	C63.345352,134.962387 54.610069,134.983765 45.402634,135.036743 
	C44.930477,126.169037 44.930477,117.269722 44.930477,108.007706 
	C54.120483,108.007706 62.823589,108.007706 71.997070,108.007706 
	C71.997070,105.059189 71.997070,102.456940 71.963753,99.392960 
	C74.730026,98.931229 77.529617,98.931229 80.997437,98.931229 
	C80.997437,104.742851 80.997437,110.440392 80.972275,116.611565 
	C80.947105,117.085190 81.014572,117.013184 80.569412,117.006042 
	C71.437485,116.998901 62.750702,116.998901 54.167938,116.998901 
	C54.167938,120.348984 54.167938,122.954247 54.167938,126.104111 
	C60.173409,126.104111 66.019196,126.104111 71.933029,126.104111 
	C71.933029,129.457001 71.933029,132.261673 71.973068,135.038696 
	C72.013107,135.011047 72.080635,134.940994 72.080635,134.941010 
z"/>
<path fill="#FDFDFD" opacity="1.000000" stroke="none" 
	d="
M126.272331,81.271843 
	C126.272331,75.344482 126.272331,69.417114 126.272331,63.235741 
	C129.077957,63.235741 131.796188,63.235741 134.956482,63.235741 
	C134.956482,66.085258 134.956482,68.825500 134.956482,71.770477 
	C138.119873,71.770477 140.849976,71.770477 143.960236,71.770477 
	C143.960236,68.922226 143.960236,66.183411 143.960236,63.226265 
	C147.059631,63.226265 149.789764,63.226265 152.764938,63.226265 
	C152.764938,69.024025 152.764938,74.748947 152.764938,81.011894 
	C144.176987,81.011894 135.608398,81.011894 126.616592,81.106445 
	C126.193375,81.200989 126.272331,81.271843 126.272331,81.271843 
z"/>
<path fill="#FCFCFC" opacity="1.000000" stroke="none" 
	d="
M107.978760,81.051529 
	C113.723900,81.061958 119.504845,81.038635 125.779068,81.143585 
	C126.272331,81.271843 126.193375,81.200989 126.160034,81.171936 
	C126.126686,83.938332 126.126686,86.733772 126.126686,89.906601 
	C129.005768,89.906601 131.752563,89.906601 134.747437,89.906601 
	C134.747437,93.009872 134.747437,95.742455 134.747437,98.743980 
	C128.964920,98.743980 123.231651,98.743980 117.091171,98.743980 
	C117.091171,95.945587 117.091171,93.198090 117.091171,90.077408 
	C113.956551,90.077408 111.213524,90.077408 108.004692,90.077408 
	C108.004692,87.091888 108.004692,84.478714 108.043457,81.405899 
	C108.082230,80.946274 108.014580,81.017776 107.978760,81.051529 
z"/>
<path fill="#FCFCFC" opacity="1.000000" stroke="none" 
	d="
M98.959549,27.396469 
	C101.719635,26.934053 104.504921,26.934053 108.015419,26.934053 
	C108.015419,29.735611 108.015419,32.440372 108.043030,35.607758 
	C105.162056,36.070377 102.253464,36.070377 98.984749,36.070377 
	C98.984749,33.019840 98.984749,30.439362 98.959549,27.396469 
z"/>
<path fill="#FCFCFC" opacity="1.000000" stroke="none" 
	d="
M90.386536,27.037865 
	C89.951111,24.327461 89.971802,21.585176 89.961754,18.386726 
	C92.703880,17.930557 95.476746,17.930557 98.982597,17.930557 
	C98.982597,20.765646 98.982597,23.457190 99.025887,26.608860 
	C96.327003,27.047989 93.584824,27.026987 90.386536,27.037865 
z"/>
<path fill="#FCFCFC" opacity="1.000000" stroke="none" 
	d="
M108.394180,72.024582 
	C107.954224,69.326263 107.976173,66.584717 107.964523,63.387169 
	C110.729980,62.931164 113.529030,62.931164 116.668098,62.931164 
	C116.668098,65.928322 116.668098,68.763565 116.668098,71.981361 
	C114.044807,71.981361 111.450447,71.981361 108.394180,72.024582 
z"/>
<path fill="#FCFCFC" opacity="1.000000" stroke="none" 
	d="
M72.037651,98.608261 
	C69.280586,99.069405 66.492531,99.069405 63.003319,99.069405 
	C63.003319,96.258873 63.003319,93.557663 62.967163,90.394112 
	C65.704674,89.931770 68.478348,89.931770 72.006653,89.931770 
	C72.006653,92.767685 72.006653,95.457397 72.037651,98.608261 
z"/>
<path fill="#FDFDFD" opacity="1.000000" stroke="none" 
	d="
M20.236263,89.998810 
	C28.669662,89.996407 36.623535,89.996407 44.788597,89.996407 
	C44.788597,93.081764 44.788597,95.811386 44.788597,98.773376 
	C35.906677,98.773376 27.170019,98.773376 17.201303,98.773376 
	C18.132753,95.575943 18.944744,92.788582 20.236263,89.998810 
z"/>
<path fill="#FDFDFD" opacity="1.000000" stroke="none" 
	d="
M29.117460,108.001846 
	C31.553368,108.000107 33.513042,108.000107 35.733292,108.000107 
	C35.733292,113.941208 35.733292,119.647285 35.733292,125.683029 
	C33.135166,125.683029 30.407690,125.683029 27.042408,125.683029 
	C27.042408,120.248924 27.019667,114.536331 27.110365,108.825531 
	C27.114843,108.543518 28.108290,108.277206 29.117460,108.001846 
z"/>
<path fill="#FCFCFC" opacity="1.000000" stroke="none" 
	d="
M63.007431,20.197498 
	C63.008503,34.624241 63.008503,48.567711 63.008503,62.758652 
	C47.983883,62.758652 33.270786,62.758652 18.281900,62.758652 
	C18.281900,47.916954 18.281900,33.205669 18.281900,18.002047 
	C32.693054,18.002047 46.949329,17.981102 61.204861,18.074505 
	C61.808910,18.078465 62.406013,19.143501 63.007431,20.197498 
M45.455166,53.994976 
	C48.223351,53.994976 50.991531,53.994976 53.707382,53.994976 
	C53.707382,44.677700 53.707382,35.946388 53.707382,27.270483 
	C44.672855,27.270483 35.933640,27.270483 27.277287,27.270483 
	C27.277287,36.294327 27.277287,45.035961 27.277287,53.994987 
	C33.186871,53.994987 38.825890,53.994987 45.455166,53.994976 
z"/>
<path fill="#FDFDFD" opacity="1.000000" stroke="none" 
	d="
M18.047642,201.000153 
	C18.047415,193.866623 18.047415,187.233017 18.047415,180.299011 
	C33.020161,180.299011 47.739716,180.299011 62.755550,180.299011 
	C62.755550,194.960022 62.755550,209.682770 62.755550,224.704010 
	C48.073509,224.704010 33.352493,224.704010 18.047871,224.704010 
	C18.047871,217.014557 18.047871,209.257324 18.047642,201.000153 
M53.993679,190.715271 
	C53.396255,190.146072 52.805260,189.089233 52.200436,189.081253 
	C43.921848,188.972046 35.641354,189.007675 27.214161,189.007675 
	C27.214161,198.160660 27.214161,206.892090 27.214161,215.781860 
	C36.178764,215.781860 44.912750,215.781860 53.995258,215.781860 
	C53.995258,207.595673 53.995258,199.638702 53.993679,190.715271 
z"/>
<path fill="#FDFDFD" opacity="1.000000" stroke="none" 
	d="
M180.439819,62.550491 
	C180.104767,47.722294 180.104767,33.237652 180.104767,18.373705 
	C194.831284,18.373705 209.562622,18.373705 224.662292,18.373705 
	C224.662292,32.804783 224.662292,47.535442 224.662292,62.894051 
	C210.237915,62.894051 195.506409,62.894051 180.439819,62.550491 
M207.455612,53.997360 
	C210.223114,53.997360 212.990631,53.997360 215.731110,53.997360 
	C215.731110,44.674477 215.731110,35.936958 215.731110,27.260780 
	C206.702179,27.260780 197.963455,27.260780 189.276978,27.260780 
	C189.276978,36.274509 189.276978,45.016659 189.276978,53.996918 
	C195.190247,53.996918 200.827759,53.996918 207.455612,53.997360 
z"/>
<path fill="#FCFCFC" opacity="1.000000" stroke="none" 
	d="
M99.036743,206.606125 
	C96.267212,207.068604 93.463791,207.068604 89.992935,207.068604 
	C89.992935,201.284714 89.992935,195.579712 89.962326,189.402924 
	C98.837364,188.931137 107.743019,188.931137 116.813095,188.931137 
	C116.813095,192.170990 116.813095,194.897171 116.813095,197.991531 
	C110.891495,197.991531 105.157143,197.991531 99.002853,197.991531 
	C99.002853,200.946899 99.002853,203.545273 99.036743,206.606125 
z"/>
<path fill="#FCFCFC" opacity="1.000000" stroke="none" 
	d="
M134.962082,18.403378 
	C137.672577,17.952713 140.414703,17.973663 143.613022,17.963049 
	C144.069214,20.736137 144.069214,23.540789 144.069214,26.723137 
	C146.847214,26.723137 149.583664,26.723137 152.661133,26.723137 
	C152.661133,29.816160 152.661133,32.550125 152.661133,35.644497 
	C147.117050,35.644497 141.286102,35.644497 134.993713,35.644497 
	C134.993713,30.038506 134.993713,24.456749 134.962082,18.403378 
z"/>
<path fill="#FDFDFD" opacity="1.000000" stroke="none" 
	d="
M212.992584,98.501099 
	C212.552902,98.878693 212.106628,98.926247 211.330536,98.896896 
	C211.303467,98.030045 211.606201,97.240089 211.908936,96.450150 
	C212.267960,97.023781 212.626984,97.597420 212.992584,98.501099 
z"/>
<path fill="#FCFCFC" opacity="1.000000" stroke="none" 
	d="
M72.393768,144.034698 
	C71.951805,141.329117 71.971893,138.588974 72.036308,135.394928 
	C72.080635,134.940994 72.013107,135.011047 72.428940,135.006439 
	C75.586128,135.024170 78.327492,135.046524 81.068848,135.068878 
	C81.068848,135.068878 80.999779,134.997864 80.965714,134.961914 
	C80.931641,137.712753 80.931641,140.499573 80.931641,144.000153 
	C78.260597,144.000153 75.558205,144.000153 72.393768,144.034698 
z"/>
<path fill="#FCFCFC" opacity="1.000000" stroke="none" 
	d="
M216.387604,216.035004 
	C215.953720,213.326965 215.975586,210.584366 215.964050,207.385742 
	C218.716446,206.929703 221.502243,206.929703 225.007019,206.929703 
	C225.007019,209.739838 225.007019,212.442093 225.037872,215.606705 
	C222.326935,216.046188 219.585144,216.023331 216.387604,216.035004 
z"/>
<path fill="#030303" opacity="1.000000" stroke="none" 
	d="
M81.037537,134.597427 
	C78.327492,135.046524 75.586128,135.024170 72.388901,135.034088 
	C71.933029,132.261673 71.933029,129.457001 71.933029,126.104111 
	C66.019196,126.104111 60.173409,126.104111 54.167938,126.104111 
	C54.167938,122.954247 54.167938,120.348984 54.167938,116.998901 
	C62.750702,116.998901 71.437485,116.998901 80.596146,116.964577 
	C81.047424,122.662155 81.026825,128.394058 81.037537,134.597427 
z"/>
<path fill="#030303" opacity="1.000000" stroke="none" 
	d="
M171.000793,176.905823 
	C171.001251,174.804474 171.001251,173.176331 171.001251,171.274597 
	C173.872406,171.274597 176.595245,171.274597 179.665268,171.274597 
	C179.665268,173.925415 179.665268,176.756775 179.665268,180.197479 
	C176.874130,178.330566 172.513489,183.366852 171.000793,176.905823 
z"/>
<path fill="#030303" opacity="1.000000" stroke="none" 
	d="
M116.963905,153.387344 
	C119.724426,152.931534 122.519035,152.931534 125.659286,152.931534 
	C125.659286,155.897873 125.659286,158.733032 125.659286,161.991806 
	C123.025841,161.991806 120.439560,161.991806 117.392067,162.029816 
	C116.953232,159.326279 116.975616,156.584717 116.963905,153.387344 
z"/>
<path fill="#010101" opacity="1.000000" stroke="none" 
	d="
M44.960037,53.994980 
	C38.825890,53.994987 33.186871,53.994987 27.277287,53.994987 
	C27.277287,45.035961 27.277287,36.294327 27.277287,27.270483 
	C35.933640,27.270483 44.672855,27.270483 53.707382,27.270483 
	C53.707382,35.946388 53.707382,44.677700 53.707382,53.994976 
	C50.991531,53.994976 48.223351,53.994976 44.960037,53.994980 
z"/>
<path fill="#010101" opacity="1.000000" stroke="none" 
	d="
M53.994469,191.198502 
	C53.995258,199.638702 53.995258,207.595673 53.995258,215.781860 
	C44.912750,215.781860 36.178764,215.781860 27.214161,215.781860 
	C27.214161,206.892090 27.214161,198.160660 27.214161,189.007675 
	C35.641354,189.007675 43.921848,188.972046 52.200436,189.081253 
	C52.805260,189.089233 53.396255,190.146072 53.994469,191.198502 
z"/>
<path fill="#010101" opacity="1.000000" stroke="none" 
	d="
M206.960449,53.997139 
	C200.827759,53.996918 195.190247,53.996918 189.276978,53.996918 
	C189.276978,45.016659 189.276978,36.274509 189.276978,27.260780 
	C197.963455,27.260780 206.702179,27.260780 215.731110,27.260780 
	C215.731110,35.936958 215.731110,44.674477 215.731110,53.997360 
	C212.990631,53.997360 210.223114,53.997360 206.960449,53.997139 
z"/>
</svg>